<svg width="512" height="512" viewBox="0 0 512 512" fill="none" xmlns="http://www.w3.org/2000/svg">
<path d="M495.272 423.558C495.272 423.558 426.73 363.606 410.335 347.23C386.272 323.292 376.645 311.764 385.14 292.299C422.295 216.519 409.443 122.445 346.42 59.441C267.185 -19.813 138.681 -19.813 59.436 59.441C-19.8091 138.705 -19.8091 267.17 59.436 346.444C122.421 409.429 216.524 422.281 292.275 385.135C311.741 376.65 323.297 386.277 347.226 410.35C363.61 426.735 423.534 495.287 423.534 495.287C454.623 526.358 478.543 507.237 492.902 492.897C507.232 478.547 526.362 454.638 495.272 423.558ZM286.017 286.012C240.117 331.883 165.729 331.883 119.848 286.012C73.9679 240.141 73.9679 165.734 119.848 119.863C165.729 73.992 240.117 73.992 286.017 119.863C331.898 165.734 331.898 240.141 286.017 286.012Z" fill="white"/>
</svg>
